<svg width="319" height="117" viewBox="0 0 319 117" fill="none" xmlns="http://www.w3.org/2000/svg">
<rect x="1" y="1" width="317" height="115" rx="9" stroke="#4285F4" stroke-width="2"/>
<rect x="259" y="52" width="40" height="40" fill="#333333"/>
<rect x="199.5" y="52.5" width="39" height="39" fill="white" stroke="black"/>
<rect x="139" y="52" width="40" height="40" fill="#42F4A9"/>
<rect x="79" y="52" width="40" height="40" fill="#FFC107"/>
<rect x="19" y="52" width="40" height="40" fill="#4285F4"/>
<path d="M35.6619 18.4347H32.4744C32.3835 17.9119 32.2159 17.4489 31.9716 17.0455C31.7273 16.6364 31.4233 16.2898 31.0597 16.0057C30.696 15.7216 30.2813 15.5085 29.8153 15.3665C29.3551 15.2188 28.858 15.1449 28.3239 15.1449C27.375 15.1449 26.5341 15.3835 25.8011 15.8608C25.0682 16.3324 24.4943 17.0256 24.0795 17.9403C23.6648 18.8494 23.4574 19.9602 23.4574 21.2727C23.4574 22.608 23.6648 23.733 24.0795 24.6477C24.5 25.5568 25.0739 26.2443 25.8011 26.7102C26.5341 27.1705 27.3722 27.4006 28.3153 27.4006C28.8381 27.4006 29.3267 27.3324 29.7812 27.196C30.2415 27.054 30.6534 26.8466 31.017 26.5739C31.3864 26.3011 31.696 25.9659 31.946 25.5682C32.2017 25.1705 32.3778 24.7159 32.4744 24.2045L35.6619 24.2216C35.5426 25.0511 35.2841 25.8295 34.8864 26.5568C34.4943 27.2841 33.9801 27.9261 33.3438 28.483C32.7074 29.0341 31.9631 29.4659 31.1108 29.7784C30.2585 30.0852 29.3125 30.2386 28.2727 30.2386C26.7386 30.2386 25.3693 29.8835 24.1648 29.1733C22.9602 28.4631 22.0114 27.4375 21.3182 26.0966C20.625 24.7557 20.2784 23.1477 20.2784 21.2727C20.2784 19.392 20.6278 17.7841 21.3267 16.4489C22.0256 15.108 22.9773 14.0824 24.1818 13.3722C25.3864 12.6619 26.75 12.3068 28.2727 12.3068C29.2443 12.3068 30.1477 12.4432 30.983 12.7159C31.8182 12.9886 32.5625 13.3892 33.2159 13.9176C33.8693 14.4403 34.4063 15.0824 34.8267 15.8438C35.2528 16.5994 35.5313 17.4631 35.6619 18.4347ZM54.1541 21.2727C54.1541 23.1534 53.8018 24.7642 53.0973 26.1051C52.3984 27.4403 51.4439 28.4631 50.2337 29.1733C49.0291 29.8835 47.6626 30.2386 46.1342 30.2386C44.6058 30.2386 43.2365 29.8835 42.0263 29.1733C40.8217 28.4574 39.8672 27.4318 39.1626 26.0966C38.4638 24.7557 38.1143 23.1477 38.1143 21.2727C38.1143 19.392 38.4638 17.7841 39.1626 16.4489C39.8672 15.108 40.8217 14.0824 42.0263 13.3722C43.2365 12.6619 44.6058 12.3068 46.1342 12.3068C47.6626 12.3068 49.0291 12.6619 50.2337 13.3722C51.4439 14.0824 52.3984 15.108 53.0973 16.4489C53.8018 17.7841 54.1541 19.392 54.1541 21.2727ZM50.9751 21.2727C50.9751 19.9489 50.7678 18.8324 50.353 17.9233C49.9439 17.0085 49.3757 16.3182 48.6484 15.8523C47.9212 15.3807 47.0831 15.1449 46.1342 15.1449C45.1854 15.1449 44.3473 15.3807 43.62 15.8523C42.8928 16.3182 42.3217 17.0085 41.907 17.9233C41.4979 18.8324 41.2933 19.9489 41.2933 21.2727C41.2933 22.5966 41.4979 23.7159 41.907 24.6307C42.3217 25.5398 42.8928 26.2301 43.62 26.7017C44.3473 27.1676 45.1854 27.4006 46.1342 27.4006C47.0831 27.4006 47.9212 27.1676 48.6484 26.7017C49.3757 26.2301 49.9439 25.5398 50.353 24.6307C50.7678 23.7159 50.9751 22.5966 50.9751 21.2727ZM57.1435 30V12.5455H60.3054V27.3494H67.9929V30H57.1435ZM85.6541 21.2727C85.6541 23.1534 85.3018 24.7642 84.5973 26.1051C83.8984 27.4403 82.9439 28.4631 81.7337 29.1733C80.5291 29.8835 79.1626 30.2386 77.6342 30.2386C76.1058 30.2386 74.7365 29.8835 73.5263 29.1733C72.3217 28.4574 71.3672 27.4318 70.6626 26.0966C69.9638 24.7557 69.6143 23.1477 69.6143 21.2727C69.6143 19.392 69.9638 17.7841 70.6626 16.4489C71.3672 15.108 72.3217 14.0824 73.5263 13.3722C74.7365 12.6619 76.1058 12.3068 77.6342 12.3068C79.1626 12.3068 80.5291 12.6619 81.7337 13.3722C82.9439 14.0824 83.8984 15.108 84.5973 16.4489C85.3018 17.7841 85.6541 19.392 85.6541 21.2727ZM82.4751 21.2727C82.4751 19.9489 82.2678 18.8324 81.853 17.9233C81.4439 17.0085 80.8757 16.3182 80.1484 15.8523C79.4212 15.3807 78.5831 15.1449 77.6342 15.1449C76.6854 15.1449 75.8473 15.3807 75.12 15.8523C74.3928 16.3182 73.8217 17.0085 73.407 17.9233C72.9979 18.8324 72.7933 19.9489 72.7933 21.2727C72.7933 22.5966 72.9979 23.7159 73.407 24.6307C73.8217 25.5398 74.3928 26.2301 75.12 26.7017C75.8473 27.1676 76.6854 27.4006 77.6342 27.4006C78.5831 27.4006 79.4212 27.1676 80.1484 26.7017C80.8757 26.2301 81.4439 25.5398 81.853 24.6307C82.2678 23.7159 82.4751 22.5966 82.4751 21.2727ZM88.6435 30V12.5455H95.1889C96.5298 12.5455 97.6548 12.7784 98.5639 13.2443C99.4787 13.7102 100.169 14.3636 100.635 15.2045C101.107 16.0398 101.342 17.0142 101.342 18.1278C101.342 19.2472 101.104 20.2187 100.626 21.0426C100.155 21.8608 99.4588 22.4943 98.5384 22.9432C97.6179 23.3864 96.4872 23.608 95.1463 23.608H90.4844V20.983H94.7202C95.5043 20.983 96.1463 20.875 96.6463 20.6591C97.1463 20.4375 97.5156 20.1165 97.7543 19.696C97.9986 19.2699 98.1207 18.7472 98.1207 18.1278C98.1207 17.5085 97.9986 16.9801 97.7543 16.5426C97.5099 16.0994 97.1378 15.7642 96.6378 15.5369C96.1378 15.304 95.4929 15.1875 94.7031 15.1875H91.8054V30H88.6435ZM97.6605 22.0909L101.982 30H98.4531L94.2088 22.0909H97.6605ZM113.739 17.3438C113.659 16.5994 113.324 16.0199 112.733 15.6051C112.148 15.1903 111.386 14.983 110.449 14.983C109.79 14.983 109.224 15.0824 108.753 15.2812C108.281 15.4801 107.92 15.75 107.67 16.0909C107.42 16.4318 107.293 16.821 107.287 17.2585C107.287 17.6222 107.369 17.9375 107.534 18.2045C107.705 18.4716 107.935 18.6989 108.224 18.8864C108.514 19.0682 108.835 19.2216 109.188 19.3466C109.54 19.4716 109.895 19.5767 110.253 19.6619L111.889 20.071C112.548 20.2244 113.182 20.4318 113.79 20.6932C114.403 20.9545 114.952 21.2841 115.435 21.6818C115.923 22.0795 116.31 22.5597 116.594 23.1222C116.878 23.6847 117.02 24.3437 117.02 25.0994C117.02 26.1222 116.759 27.0227 116.236 27.8011C115.713 28.5739 114.957 29.179 113.969 29.6165C112.986 30.0483 111.795 30.2642 110.398 30.2642C109.04 30.2642 107.861 30.054 106.861 29.6335C105.866 29.2131 105.088 28.5994 104.526 27.7926C103.969 26.9858 103.668 26.0028 103.622 24.8438H106.733C106.778 25.4517 106.966 25.9574 107.295 26.3608C107.625 26.7642 108.054 27.0653 108.582 27.2642C109.116 27.4631 109.713 27.5625 110.372 27.5625C111.06 27.5625 111.662 27.4602 112.179 27.2557C112.702 27.0455 113.111 26.7557 113.406 26.3864C113.702 26.0114 113.852 25.5739 113.858 25.0739C113.852 24.6193 113.719 24.2443 113.457 23.9489C113.196 23.6477 112.83 23.3977 112.358 23.1989C111.892 22.9943 111.347 22.8125 110.722 22.6534L108.736 22.142C107.298 21.7727 106.162 21.2131 105.327 20.4631C104.497 19.7074 104.082 18.7045 104.082 17.4545C104.082 16.4261 104.361 15.5256 104.918 14.7528C105.48 13.9801 106.244 13.3807 107.21 12.9545C108.176 12.5227 109.27 12.3068 110.491 12.3068C111.73 12.3068 112.815 12.5227 113.747 12.9545C114.685 13.3807 115.42 13.9744 115.955 14.7358C116.489 15.4915 116.764 16.3608 116.781 17.3438H113.739Z" fill="#333333"/>
</svg>
