<svg width="472" height="161" viewBox="0 0 472 161" fill="none" xmlns="http://www.w3.org/2000/svg">
<rect x="1" y="1" width="470" height="159" rx="9" stroke="#4285F4" stroke-width="2"/>
<path d="M80.9325 103V93.5455H84.5518C85.2351 93.5455 85.8029 93.6532 86.2553 93.8686C86.7108 94.081 87.0509 94.3718 87.2756 94.7411C87.5033 95.1104 87.6172 95.529 87.6172 95.9968C87.6172 96.3815 87.5433 96.7108 87.3956 96.9847C87.2479 97.2556 87.0494 97.4756 86.8001 97.6449C86.5508 97.8142 86.2723 97.9357 85.9645 98.0096V98.1019C86.3 98.1204 86.6216 98.2235 86.9293 98.4112C87.2402 98.5959 87.4941 98.8575 87.6911 99.196C87.888 99.5346 87.9865 99.9439 87.9865 100.424C87.9865 100.913 87.868 101.353 87.631 101.744C87.3941 102.132 87.0371 102.438 86.56 102.663C86.083 102.888 85.4828 103 84.7596 103H80.9325ZM82.6452 101.569H84.4872C85.1089 101.569 85.5567 101.45 85.8306 101.213C86.1076 100.973 86.2461 100.666 86.2461 100.29C86.2461 100.01 86.1768 99.7577 86.0384 99.533C85.8999 99.3053 85.7029 99.1268 85.4474 98.9975C85.192 98.8652 84.8873 98.799 84.5334 98.799H82.6452V101.569ZM82.6452 97.5664H84.3395C84.6349 97.5664 84.9012 97.5125 85.1381 97.4048C85.3751 97.294 85.5613 97.1386 85.6967 96.9386C85.8352 96.7354 85.9045 96.4954 85.9045 96.2184C85.9045 95.8522 85.7752 95.5505 85.5167 95.3136C85.2612 95.0766 84.8812 94.9581 84.3764 94.9581H82.6452V97.5664ZM92.4956 103.138C91.8032 103.138 91.203 102.986 90.6952 102.681C90.1874 102.377 89.7935 101.951 89.5134 101.403C89.2364 100.855 89.0979 100.215 89.0979 99.4822C89.0979 98.7498 89.2364 98.1081 89.5134 97.5572C89.7935 97.0063 90.1874 96.5785 90.6952 96.2738C91.203 95.9691 91.8032 95.8168 92.4956 95.8168C93.1881 95.8168 93.7883 95.9691 94.2961 96.2738C94.8039 96.5785 95.1963 97.0063 95.4733 97.5572C95.7533 98.1081 95.8934 98.7498 95.8934 99.4822C95.8934 100.215 95.7533 100.855 95.4733 101.403C95.1963 101.951 94.8039 102.377 94.2961 102.681C93.7883 102.986 93.1881 103.138 92.4956 103.138ZM92.5049 101.8C92.8804 101.8 93.1943 101.697 93.4466 101.49C93.699 101.281 93.8867 101.001 94.0099 100.65C94.136 100.299 94.1991 99.9085 94.1991 99.4776C94.1991 99.0437 94.136 98.6513 94.0099 98.3004C93.8867 97.9465 93.699 97.6649 93.4466 97.4556C93.1943 97.2463 92.8804 97.1417 92.5049 97.1417C92.1202 97.1417 91.8001 97.2463 91.5447 97.4556C91.2923 97.6649 91.103 97.9465 90.9768 98.3004C90.8537 98.6513 90.7922 99.0437 90.7922 99.4776C90.7922 99.9085 90.8537 100.299 90.9768 100.65C91.103 101.001 91.2923 101.281 91.5447 101.49C91.8001 101.697 92.1202 101.8 92.5049 101.8ZM99.9432 103.125C99.3861 103.125 98.8875 102.982 98.4474 102.695C98.0073 102.409 97.6596 101.994 97.4041 101.449C97.1487 100.904 97.021 100.242 97.021 99.4638C97.021 98.6759 97.1502 98.0111 97.4087 97.4695C97.6703 96.9247 98.0227 96.5138 98.4659 96.2369C98.9091 95.9568 99.4031 95.8168 99.9478 95.8168C100.363 95.8168 100.705 95.8875 100.973 96.0291C101.24 96.1676 101.453 96.3353 101.61 96.5323C101.767 96.7262 101.888 96.9093 101.974 97.0817H102.044V93.5455H103.719V103H102.076V101.883H101.974C101.888 102.055 101.764 102.238 101.6 102.432C101.437 102.623 101.222 102.786 100.954 102.922C100.686 103.057 100.349 103.125 99.9432 103.125ZM100.409 101.754C100.763 101.754 101.065 101.658 101.314 101.467C101.564 101.273 101.753 101.004 101.882 100.659C102.011 100.315 102.076 99.9131 102.076 99.4545C102.076 98.996 102.011 98.5974 101.882 98.2589C101.756 97.9203 101.568 97.6572 101.319 97.4695C101.073 97.2817 100.77 97.1879 100.409 97.1879C100.037 97.1879 99.7262 97.2848 99.4769 97.4787C99.2276 97.6726 99.0399 97.9403 98.9137 98.282C98.7875 98.6236 98.7244 99.0144 98.7244 99.4545C98.7244 99.8977 98.7875 100.293 98.9137 100.641C99.043 100.986 99.2322 101.258 99.4815 101.458C99.7339 101.655 100.043 101.754 100.409 101.754ZM106.539 105.659C106.311 105.659 106.1 105.641 105.907 105.604C105.716 105.57 105.563 105.53 105.449 105.484L105.837 104.182C106.08 104.253 106.297 104.286 106.488 104.283C106.679 104.28 106.847 104.22 106.991 104.103C107.139 103.989 107.264 103.799 107.365 103.531L107.508 103.148L104.937 95.9091H106.71L108.344 101.264H108.418L110.057 95.9091H111.834L108.995 103.859C108.863 104.234 108.687 104.556 108.469 104.824C108.25 105.094 107.982 105.301 107.665 105.442C107.351 105.587 106.976 105.659 106.539 105.659ZM120.513 97.5849V98.9606H116.257V97.5849H120.513ZM125.477 103V101.763L128.759 98.5451C129.073 98.2281 129.335 97.9465 129.544 97.7003C129.753 97.4541 129.91 97.2156 130.015 96.9847C130.12 96.7539 130.172 96.5077 130.172 96.2461C130.172 95.9476 130.104 95.6921 129.969 95.4798C129.833 95.2643 129.647 95.0981 129.41 94.9812C129.173 94.8642 128.904 94.8058 128.602 94.8058C128.291 94.8058 128.019 94.8704 127.785 94.9996C127.551 95.1258 127.37 95.3059 127.24 95.5398C127.114 95.7737 127.051 96.0522 127.051 96.3754H125.422C125.422 95.7752 125.558 95.2536 125.832 94.8104C126.106 94.3672 126.483 94.024 126.963 93.7809C127.447 93.5378 128.001 93.4162 128.625 93.4162C129.259 93.4162 129.816 93.5347 130.297 93.7717C130.777 94.0086 131.149 94.3333 131.414 94.7457C131.681 95.1581 131.815 95.629 131.815 96.1584C131.815 96.5123 131.748 96.8601 131.612 97.2017C131.477 97.5433 131.238 97.9219 130.897 98.3374C130.558 98.7528 130.083 99.256 129.47 99.8469L127.841 101.504V101.569H131.958V103H125.477Z" fill="#333333"/>
<path d="M30.076 103V92.0909H34.2521C35.0405 92.0909 35.6957 92.2152 36.2177 92.4638C36.7433 92.7088 37.1357 93.0444 37.3949 93.4705C37.6577 93.8967 37.7891 94.3796 37.7891 94.9194C37.7891 95.3633 37.7038 95.7433 37.5334 96.0593C37.3629 96.3718 37.1339 96.6257 36.8462 96.821C36.5586 97.0163 36.2372 97.1566 35.8821 97.2418V97.3484C36.2692 97.3697 36.6403 97.4886 36.9954 97.7053C37.354 97.9183 37.647 98.2202 37.8743 98.6108C38.1016 99.0014 38.2152 99.4737 38.2152 100.028C38.2152 100.592 38.0785 101.1 37.805 101.551C37.5316 101.999 37.1197 102.352 36.5692 102.611C36.0188 102.87 35.3263 103 34.4918 103H30.076ZM32.0522 101.349H34.1776C34.8949 101.349 35.4116 101.212 35.7276 100.939C36.0472 100.662 36.207 100.306 36.207 99.8732C36.207 99.5501 36.1271 99.2589 35.9673 98.9996C35.8075 98.7369 35.5803 98.5309 35.2855 98.3817C34.9908 98.229 34.6392 98.1527 34.2308 98.1527H32.0522V101.349ZM32.0522 96.7305H34.0071C34.348 96.7305 34.6552 96.6683 34.9286 96.544C35.2021 96.4162 35.4169 96.2369 35.5732 96.006C35.733 95.7717 35.8129 95.4947 35.8129 95.1751C35.8129 94.7525 35.6637 94.4045 35.3654 94.131C35.0707 93.8576 34.6321 93.7209 34.0497 93.7209H32.0522V96.7305ZM43.4181 103.16C42.6191 103.16 41.9266 102.984 41.3406 102.632C40.7547 102.281 40.3002 101.789 39.977 101.157C39.6574 100.525 39.4976 99.7862 39.4976 98.9411C39.4976 98.0959 39.6574 97.3555 39.977 96.7198C40.3002 96.0842 40.7547 95.5906 41.3406 95.239C41.9266 94.8874 42.6191 94.7116 43.4181 94.7116C44.2171 94.7116 44.9095 94.8874 45.4955 95.239C46.0814 95.5906 46.5342 96.0842 46.8538 96.7198C47.1769 97.3555 47.3385 98.0959 47.3385 98.9411C47.3385 99.7862 47.1769 100.525 46.8538 101.157C46.5342 101.789 46.0814 102.281 45.4955 102.632C44.9095 102.984 44.2171 103.16 43.4181 103.16ZM43.4287 101.615C43.8619 101.615 44.2242 101.496 44.5154 101.258C44.8066 101.017 45.0232 100.694 45.1652 100.289C45.3108 99.8839 45.3836 99.4329 45.3836 98.9357C45.3836 98.435 45.3108 97.9822 45.1652 97.5774C45.0232 97.169 44.8066 96.8441 44.5154 96.6026C44.2242 96.3612 43.8619 96.2404 43.4287 96.2404C42.9848 96.2404 42.6155 96.3612 42.3208 96.6026C42.0296 96.8441 41.8112 97.169 41.6656 97.5774C41.5235 97.9822 41.4525 98.435 41.4525 98.9357C41.4525 99.4329 41.5235 99.8839 41.6656 100.289C41.8112 100.694 42.0296 101.017 42.3208 101.258C42.6155 101.496 42.9848 101.615 43.4287 101.615ZM52.0114 103.144C51.3686 103.144 50.7933 102.979 50.2855 102.648C49.7777 102.318 49.3764 101.839 49.0817 101.21C48.7869 100.582 48.6396 99.8182 48.6396 98.9197C48.6396 98.0107 48.7887 97.2436 49.087 96.6186C49.3888 95.9901 49.7955 95.516 50.3068 95.1964C50.8182 94.8732 51.3881 94.7116 52.0167 94.7116C52.4961 94.7116 52.8903 94.7933 53.1992 94.9567C53.5082 95.1165 53.7532 95.31 53.9343 95.5373C54.1154 95.761 54.2557 95.9723 54.3551 96.1712H54.435V92.0909H56.3686V103H54.4723V101.711H54.3551C54.2557 101.91 54.1119 102.121 53.9237 102.345C53.7354 102.565 53.4869 102.753 53.1779 102.909C52.869 103.066 52.4801 103.144 52.0114 103.144ZM52.5494 101.562C52.9577 101.562 53.3058 101.452 53.5934 101.232C53.881 101.008 54.0994 100.697 54.2486 100.299C54.3977 99.9016 54.4723 99.4382 54.4723 98.9091C54.4723 98.38 54.3977 97.9201 54.2486 97.5295C54.103 97.1388 53.8864 96.8352 53.5987 96.6186C53.3146 96.402 52.9648 96.2937 52.5494 96.2937C52.1197 96.2937 51.761 96.4055 51.4734 96.6293C51.1857 96.853 50.9691 97.1619 50.8235 97.5561C50.6779 97.9503 50.6051 98.4013 50.6051 98.9091C50.6051 99.4205 50.6779 99.8768 50.8235 100.278C50.9727 100.676 51.1911 100.99 51.4787 101.221C51.7699 101.448 52.1268 101.562 52.5494 101.562ZM59.6219 106.068C59.3591 106.068 59.1159 106.047 58.8921 106.004C58.672 105.965 58.4962 105.919 58.3648 105.866L58.8122 104.364C59.0928 104.445 59.3431 104.484 59.5633 104.481C59.7835 104.477 59.977 104.408 60.1439 104.273C60.3144 104.142 60.4582 103.922 60.5754 103.613L60.7405 103.17L57.7735 94.8182H59.819L61.7046 100.997H61.7899L63.6808 94.8182H65.7316L62.4557 103.991C62.303 104.424 62.1006 104.795 61.8485 105.104C61.5963 105.417 61.2874 105.654 60.9216 105.818C60.5594 105.985 60.1262 106.068 59.6219 106.068Z" fill="#333333"/>
<path d="M306.148 74V62.3636H308.256V67.2898H313.648V62.3636H315.761V74H313.648V69.0568H308.256V74H306.148ZM321.827 74.1705C320.952 74.1705 320.196 73.9886 319.56 73.625C318.927 73.2576 318.44 72.7386 318.099 72.0682C317.759 71.3939 317.588 70.6004 317.588 69.6875C317.588 68.7898 317.759 68.0019 318.099 67.3239C318.444 66.642 318.925 66.1117 319.543 65.733C320.16 65.3504 320.885 65.1591 321.719 65.1591C322.257 65.1591 322.764 65.2462 323.241 65.4205C323.723 65.5909 324.147 65.8561 324.514 66.2159C324.885 66.5758 325.177 67.0341 325.389 67.5909C325.601 68.1439 325.707 68.803 325.707 69.5682V70.1989H318.554V68.8125H323.736C323.732 68.4186 323.647 68.0682 323.48 67.7614C323.313 67.4508 323.08 67.2064 322.781 67.0284C322.486 66.8504 322.141 66.7614 321.747 66.7614C321.327 66.7614 320.957 66.8636 320.639 67.0682C320.321 67.2689 320.073 67.5341 319.895 67.8636C319.721 68.1894 319.632 68.5473 319.628 68.9375V70.1477C319.628 70.6553 319.721 71.0909 319.906 71.4545C320.092 71.8144 320.351 72.0909 320.685 72.2841C321.018 72.4735 321.408 72.5682 321.855 72.5682C322.154 72.5682 322.425 72.5265 322.668 72.4432C322.91 72.3561 323.12 72.2292 323.298 72.0625C323.476 71.8958 323.611 71.6894 323.702 71.4432L325.622 71.6591C325.501 72.1667 325.27 72.6098 324.929 72.9886C324.592 73.3636 324.16 73.6553 323.634 73.8636C323.107 74.0682 322.505 74.1705 321.827 74.1705ZM329.959 74.1761C329.406 74.1761 328.908 74.0777 328.464 73.8807C328.025 73.6799 327.677 73.3845 327.419 72.9943C327.165 72.6042 327.038 72.1231 327.038 71.5511C327.038 71.0587 327.129 70.6515 327.311 70.3295C327.493 70.0076 327.741 69.75 328.055 69.5568C328.37 69.3636 328.724 69.2178 329.118 69.1193C329.516 69.017 329.927 68.9432 330.351 68.8977C330.862 68.8447 331.277 68.7973 331.595 68.7557C331.913 68.7102 332.144 68.642 332.288 68.5511C332.436 68.4564 332.51 68.3106 332.51 68.1136V68.0795C332.51 67.6515 332.383 67.3201 332.129 67.0852C331.875 66.8504 331.51 66.733 331.033 66.733C330.529 66.733 330.129 66.8428 329.834 67.0625C329.542 67.2822 329.345 67.5417 329.243 67.8409L327.322 67.5682C327.474 67.0379 327.724 66.5947 328.072 66.2386C328.421 65.8788 328.847 65.6098 329.351 65.4318C329.855 65.25 330.411 65.1591 331.021 65.1591C331.442 65.1591 331.86 65.2083 332.277 65.3068C332.694 65.4053 333.074 65.5682 333.419 65.7955C333.764 66.0189 334.04 66.3239 334.249 66.7102C334.461 67.0966 334.567 67.5795 334.567 68.1591V74H332.589V72.8011H332.521C332.396 73.0436 332.22 73.2708 331.993 73.483C331.769 73.6913 331.487 73.8598 331.146 73.9886C330.809 74.1136 330.413 74.1761 329.959 74.1761ZM330.493 72.6648C330.906 72.6648 331.264 72.5833 331.567 72.4205C331.87 72.2538 332.103 72.0341 332.266 71.7614C332.432 71.4886 332.516 71.1913 332.516 70.8693V69.8409C332.451 69.8939 332.341 69.9432 332.186 69.9886C332.035 70.0341 331.864 70.0739 331.675 70.108C331.485 70.142 331.298 70.1723 331.112 70.1989C330.927 70.2254 330.766 70.2481 330.629 70.267C330.322 70.3087 330.048 70.3769 329.805 70.4716C329.563 70.5663 329.372 70.6989 329.232 70.8693C329.091 71.036 329.021 71.2519 329.021 71.517C329.021 71.8958 329.16 72.1818 329.436 72.375C329.713 72.5682 330.065 72.6648 330.493 72.6648ZM339.874 74.1534C339.188 74.1534 338.574 73.9773 338.033 73.625C337.491 73.2727 337.063 72.7614 336.749 72.0909C336.434 71.4205 336.277 70.6061 336.277 69.6477C336.277 68.678 336.436 67.8598 336.754 67.1932C337.076 66.5227 337.51 66.017 338.055 65.6761C338.601 65.3314 339.209 65.1591 339.879 65.1591C340.391 65.1591 340.811 65.2462 341.141 65.4205C341.47 65.5909 341.732 65.7973 341.925 66.0398C342.118 66.2784 342.268 66.5038 342.374 66.7159H342.459V62.3636H344.521V74H342.499V72.625H342.374C342.268 72.8371 342.114 73.0625 341.913 73.3011C341.713 73.536 341.447 73.7367 341.118 73.9034C340.788 74.0701 340.374 74.1534 339.874 74.1534ZM340.447 72.4659C340.883 72.4659 341.254 72.3485 341.561 72.1136C341.868 71.875 342.101 71.5436 342.26 71.1193C342.419 70.6951 342.499 70.2008 342.499 69.6364C342.499 69.072 342.419 68.5814 342.26 68.1648C342.105 67.7481 341.874 67.4242 341.567 67.1932C341.264 66.9621 340.891 66.8466 340.447 66.8466C339.989 66.8466 339.607 66.9659 339.3 67.2045C338.993 67.4432 338.762 67.7727 338.607 68.1932C338.451 68.6136 338.374 69.0947 338.374 69.6364C338.374 70.1818 338.451 70.6686 338.607 71.0966C338.766 71.5208 338.999 71.8561 339.305 72.1023C339.616 72.3447 339.997 72.4659 340.447 72.4659ZM346.713 74V65.2727H348.77V74H346.713ZM347.747 64.0341C347.421 64.0341 347.141 63.9261 346.906 63.7102C346.671 63.4905 346.554 63.2273 346.554 62.9205C346.554 62.6098 346.671 62.3466 346.906 62.1307C347.141 61.911 347.421 61.8011 347.747 61.8011C348.077 61.8011 348.357 61.911 348.588 62.1307C348.823 62.3466 348.94 62.6098 348.94 62.9205C348.94 63.2273 348.823 63.4905 348.588 63.7102C348.357 63.9261 348.077 64.0341 347.747 64.0341ZM352.942 68.8864V74H350.885V65.2727H352.851V66.7557H352.953C353.154 66.267 353.474 65.8788 353.913 65.5909C354.357 65.303 354.904 65.1591 355.555 65.1591C356.158 65.1591 356.682 65.2879 357.129 65.5455C357.58 65.803 357.929 66.1761 358.175 66.6648C358.425 67.1534 358.548 67.7462 358.544 68.4432V74H356.487V68.7614C356.487 68.178 356.336 67.7216 356.033 67.392C355.733 67.0625 355.319 66.8977 354.788 66.8977C354.429 66.8977 354.108 66.9773 353.828 67.1364C353.552 67.2917 353.334 67.517 353.175 67.8125C353.019 68.108 352.942 68.4659 352.942 68.8864ZM364.43 77.4545C363.692 77.4545 363.057 77.3542 362.527 77.1534C361.997 76.9564 361.571 76.6913 361.249 76.358C360.927 76.0246 360.703 75.6553 360.578 75.25L362.43 74.8011C362.514 74.9716 362.635 75.1402 362.794 75.3068C362.953 75.4773 363.167 75.6174 363.436 75.7273C363.709 75.8409 364.052 75.8977 364.464 75.8977C365.048 75.8977 365.531 75.7557 365.913 75.4716C366.296 75.1913 366.487 74.7292 366.487 74.0852V72.4318H366.385C366.279 72.6439 366.124 72.8617 365.919 73.0852C365.718 73.3087 365.451 73.4962 365.118 73.6477C364.788 73.7992 364.374 73.875 363.874 73.875C363.203 73.875 362.595 73.7178 362.05 73.4034C361.508 73.0852 361.076 72.6117 360.754 71.983C360.436 71.3504 360.277 70.5587 360.277 69.608C360.277 68.6496 360.436 67.8409 360.754 67.1818C361.076 66.5189 361.51 66.017 362.055 65.6761C362.601 65.3314 363.209 65.1591 363.879 65.1591C364.391 65.1591 364.811 65.2462 365.141 65.4205C365.474 65.5909 365.739 65.7973 365.936 66.0398C366.133 66.2784 366.283 66.5038 366.385 66.7159H366.499V65.2727H368.527V74.142C368.527 74.8883 368.349 75.5057 367.993 75.9943C367.637 76.483 367.15 76.8485 366.533 77.0909C365.915 77.3333 365.214 77.4545 364.43 77.4545ZM364.447 72.2614C364.883 72.2614 365.254 72.1553 365.561 71.9432C365.868 71.7311 366.101 71.4261 366.26 71.0284C366.419 70.6307 366.499 70.1534 366.499 69.5966C366.499 69.0473 366.419 68.5663 366.26 68.1534C366.105 67.7405 365.874 67.4205 365.567 67.1932C365.264 66.9621 364.891 66.8466 364.447 66.8466C363.989 66.8466 363.607 66.9659 363.3 67.2045C362.993 67.4432 362.762 67.7708 362.607 68.1875C362.451 68.6004 362.374 69.0701 362.374 69.5966C362.374 70.1307 362.451 70.5985 362.607 71C362.766 71.3977 362.999 71.7083 363.305 71.9318C363.616 72.1515 363.997 72.2614 364.447 72.2614ZM377.533 67.5795L375.658 67.7841C375.605 67.5947 375.512 67.4167 375.379 67.25C375.25 67.0833 375.076 66.9489 374.857 66.8466C374.637 66.7443 374.368 66.6932 374.05 66.6932C373.622 66.6932 373.262 66.786 372.97 66.9716C372.682 67.1572 372.54 67.3977 372.544 67.6932C372.54 67.947 372.633 68.1534 372.822 68.3125C373.016 68.4716 373.334 68.6023 373.777 68.7045L375.266 69.0227C376.091 69.2008 376.705 69.483 377.107 69.8693C377.512 70.2557 377.716 70.7614 377.72 71.3864C377.716 71.9356 377.555 72.4205 377.237 72.8409C376.923 73.2576 376.485 73.5833 375.925 73.8182C375.364 74.053 374.72 74.1705 373.993 74.1705C372.925 74.1705 372.065 73.947 371.413 73.5C370.762 73.0492 370.374 72.4223 370.249 71.6193L372.254 71.4261C372.345 71.8201 372.538 72.1174 372.834 72.3182C373.129 72.5189 373.514 72.6193 373.987 72.6193C374.476 72.6193 374.868 72.5189 375.163 72.3182C375.463 72.1174 375.612 71.8693 375.612 71.5739C375.612 71.3239 375.516 71.1174 375.322 70.9545C375.133 70.7917 374.838 70.6667 374.436 70.5795L372.947 70.267C372.11 70.0928 371.491 69.7992 371.089 69.3864C370.688 68.9697 370.489 68.4432 370.493 67.8068C370.489 67.2689 370.635 66.803 370.93 66.4091C371.23 66.0114 371.644 65.7045 372.175 65.4886C372.709 65.2689 373.324 65.1591 374.021 65.1591C375.044 65.1591 375.849 65.3769 376.436 65.8125C377.027 66.2481 377.393 66.8371 377.533 67.5795ZM388.675 67.3352V69.0284H383.436V67.3352H388.675ZM398.96 74.1591C398.142 74.1591 397.415 74.0189 396.778 73.7386C396.146 73.4583 395.646 73.0682 395.278 72.5682C394.911 72.0682 394.716 71.4905 394.693 70.8352H396.83C396.848 71.1496 396.953 71.4242 397.142 71.6591C397.331 71.8902 397.583 72.0701 397.898 72.1989C398.212 72.3277 398.564 72.392 398.955 72.392C399.371 72.392 399.741 72.3201 400.062 72.1761C400.384 72.0284 400.636 71.8239 400.818 71.5625C401 71.3011 401.089 71 401.085 70.6591C401.089 70.3068 400.998 69.9962 400.812 69.7273C400.627 69.4583 400.358 69.2481 400.006 69.0966C399.657 68.9451 399.237 68.8693 398.744 68.8693H397.716V67.2443H398.744C399.15 67.2443 399.504 67.1742 399.807 67.0341C400.114 66.8939 400.354 66.697 400.528 66.4432C400.703 66.1856 400.788 65.8883 400.784 65.5511C400.788 65.2216 400.714 64.9356 400.562 64.6932C400.415 64.447 400.205 64.2557 399.932 64.1193C399.663 63.983 399.347 63.9148 398.983 63.9148C398.627 63.9148 398.297 63.9792 397.994 64.108C397.691 64.2367 397.447 64.4205 397.261 64.6591C397.076 64.8939 396.977 65.1742 396.966 65.5H394.938C394.953 64.8485 395.14 64.2765 395.5 63.7841C395.864 63.2879 396.348 62.9015 396.955 62.625C397.561 62.3447 398.241 62.2045 398.994 62.2045C399.771 62.2045 400.445 62.3504 401.017 62.642C401.593 62.9299 402.038 63.3182 402.352 63.8068C402.667 64.2955 402.824 64.8352 402.824 65.4261C402.828 66.0814 402.634 66.6307 402.244 67.0739C401.858 67.517 401.35 67.8068 400.722 67.9432V68.0341C401.54 68.1477 402.167 68.4508 402.602 68.9432C403.042 69.4318 403.259 70.0398 403.256 70.767C403.256 71.4186 403.07 72.0019 402.699 72.517C402.331 73.0284 401.824 73.4299 401.176 73.7216C400.532 74.0133 399.794 74.1591 398.96 74.1591Z" fill="#333333"/>
<path d="M160.435 74V59.4545H163.07V65.6122H169.81V59.4545H172.452V74H169.81V67.821H163.07V74H160.435ZM180.033 74.2131C178.94 74.2131 177.995 73.9858 177.2 73.5312C176.409 73.072 175.8 72.4233 175.374 71.5852C174.948 70.7424 174.735 69.7505 174.735 68.6094C174.735 67.4872 174.948 66.5024 175.374 65.6548C175.805 64.8026 176.406 64.1397 177.178 63.6662C177.95 63.188 178.857 62.9489 179.898 62.9489C180.571 62.9489 181.205 63.0578 181.802 63.2756C182.403 63.4886 182.933 63.8201 183.393 64.2699C183.857 64.7197 184.221 65.2926 184.487 65.9886C184.752 66.6799 184.884 67.5038 184.884 68.4602V69.2486H175.942V67.5156H182.42C182.415 67.0232 182.308 66.5852 182.1 66.2017C181.892 65.8134 181.601 65.508 181.227 65.2855C180.857 65.063 180.426 64.9517 179.934 64.9517C179.408 64.9517 178.947 65.0795 178.549 65.3352C178.151 65.5862 177.841 65.9176 177.619 66.3295C177.401 66.7367 177.29 67.1842 177.285 67.6719V69.1847C177.285 69.8191 177.401 70.3636 177.633 70.8182C177.865 71.268 178.189 71.6136 178.606 71.8551C179.022 72.0919 179.51 72.2102 180.069 72.2102C180.443 72.2102 180.781 72.1581 181.085 72.054C181.388 71.9451 181.65 71.7865 181.873 71.5781C182.095 71.3698 182.263 71.1117 182.377 70.804L184.778 71.0739C184.626 71.7083 184.337 72.2623 183.911 72.7358C183.49 73.2045 182.95 73.5691 182.292 73.8295C181.634 74.0852 180.881 74.2131 180.033 74.2131ZM190.199 74.2202C189.507 74.2202 188.885 74.0971 188.331 73.8509C187.781 73.5999 187.346 73.2306 187.024 72.7429C186.707 72.2552 186.548 71.6539 186.548 70.9389C186.548 70.3234 186.662 69.8144 186.889 69.4119C187.116 69.0095 187.426 68.6875 187.819 68.446C188.212 68.2045 188.655 68.0223 189.147 67.8991C189.645 67.7713 190.158 67.679 190.689 67.6222C191.328 67.5559 191.846 67.4967 192.244 67.4446C192.642 67.3878 192.931 67.3026 193.11 67.1889C193.295 67.0705 193.387 66.8883 193.387 66.642V66.5994C193.387 66.0644 193.229 65.6501 192.912 65.3565C192.594 65.063 192.137 64.9162 191.541 64.9162C190.911 64.9162 190.412 65.0535 190.042 65.3281C189.678 65.6027 189.431 65.9271 189.304 66.3011L186.903 65.9602C187.092 65.2973 187.405 64.7434 187.841 64.2983C188.276 63.8485 188.809 63.5123 189.439 63.2898C190.068 63.0625 190.764 62.9489 191.527 62.9489C192.052 62.9489 192.575 63.0104 193.096 63.1335C193.617 63.2566 194.093 63.4602 194.524 63.7443C194.955 64.0237 195.3 64.4048 195.561 64.8878C195.826 65.3707 195.958 65.9744 195.958 66.6989V74H193.487V72.5014H193.402C193.245 72.8045 193.025 73.0885 192.741 73.3537C192.462 73.6141 192.109 73.8248 191.683 73.9858C191.261 74.142 190.767 74.2202 190.199 74.2202ZM190.866 72.331C191.382 72.331 191.83 72.2292 192.208 72.0256C192.587 71.8172 192.878 71.5426 193.082 71.2017C193.29 70.8608 193.395 70.4891 193.395 70.0866V68.8011C193.314 68.8674 193.177 68.929 192.983 68.9858C192.793 69.0426 192.58 69.0923 192.343 69.1349C192.107 69.1776 191.872 69.2154 191.64 69.2486C191.408 69.2817 191.207 69.3101 191.037 69.3338C190.653 69.3859 190.31 69.4711 190.007 69.5895C189.704 69.7079 189.465 69.8736 189.289 70.0866C189.114 70.295 189.027 70.5649 189.027 70.8963C189.027 71.3698 189.199 71.7273 189.545 71.9688C189.891 72.2102 190.331 72.331 190.866 72.331ZM202.592 74.1918C201.735 74.1918 200.968 73.9716 200.291 73.5312C199.614 73.0909 199.079 72.4517 198.686 71.6136C198.293 70.7756 198.096 69.7576 198.096 68.5597C198.096 67.3475 198.295 66.3248 198.693 65.4915C199.095 64.6534 199.637 64.0213 200.319 63.5952C201.001 63.1643 201.761 62.9489 202.599 62.9489C203.238 62.9489 203.764 63.0578 204.176 63.2756C204.588 63.4886 204.914 63.7467 205.156 64.0497C205.397 64.348 205.584 64.6297 205.717 64.8949H205.824V59.4545H208.402V74H205.873V72.2812H205.717C205.584 72.5464 205.393 72.8281 205.142 73.1264C204.891 73.42 204.559 73.6709 204.147 73.8793C203.735 74.0876 203.217 74.1918 202.592 74.1918ZM203.309 72.0824C203.854 72.0824 204.318 71.9356 204.701 71.642C205.085 71.3437 205.376 70.9295 205.575 70.3991C205.774 69.8688 205.873 69.2509 205.873 68.5455C205.873 67.84 205.774 67.2268 205.575 66.706C205.381 66.1851 205.092 65.7803 204.708 65.4915C204.33 65.2027 203.863 65.0582 203.309 65.0582C202.736 65.0582 202.258 65.2074 201.875 65.5057C201.491 65.804 201.202 66.2159 201.008 66.7415C200.814 67.267 200.717 67.8684 200.717 68.5455C200.717 69.2273 200.814 69.8357 201.008 70.3707C201.207 70.901 201.498 71.3201 201.882 71.6278C202.27 71.9309 202.746 72.0824 203.309 72.0824ZM211.141 74V63.0909H213.712V74H211.141ZM212.434 61.5426C212.027 61.5426 211.676 61.4077 211.383 61.1378C211.089 60.8632 210.942 60.5341 210.942 60.1506C210.942 59.7623 211.089 59.4332 211.383 59.1634C211.676 58.8887 212.027 58.7514 212.434 58.7514C212.846 58.7514 213.196 58.8887 213.485 59.1634C213.779 59.4332 213.925 59.7623 213.925 60.1506C213.925 60.5341 213.779 60.8632 213.485 61.1378C213.196 61.4077 212.846 61.5426 212.434 61.5426ZM218.927 67.608V74H216.356V63.0909H218.814V64.9446H218.941C219.192 64.3338 219.592 63.8485 220.142 63.4886C220.696 63.1288 221.38 62.9489 222.194 62.9489C222.947 62.9489 223.603 63.1098 224.162 63.4318C224.725 63.7538 225.161 64.2202 225.468 64.831C225.781 65.4418 225.935 66.1828 225.93 67.054V74H223.359V67.4517C223.359 66.7225 223.17 66.152 222.791 65.7401C222.417 65.3281 221.898 65.1222 221.235 65.1222C220.786 65.1222 220.386 65.2216 220.035 65.4205C219.69 65.6146 219.417 65.8963 219.218 66.2656C219.024 66.6349 218.927 67.0824 218.927 67.608ZM233.288 78.3182C232.365 78.3182 231.572 78.1927 230.909 77.9418C230.246 77.6955 229.713 77.3641 229.311 76.9474C228.908 76.5308 228.629 76.0691 228.473 75.5625L230.788 75.0014C230.892 75.2145 231.044 75.4252 231.243 75.6335C231.441 75.8466 231.709 76.0218 232.045 76.1591C232.386 76.3011 232.815 76.3722 233.331 76.3722C234.06 76.3722 234.663 76.1946 235.142 75.8395C235.62 75.4891 235.859 74.9115 235.859 74.1065V72.0398H235.731C235.599 72.3049 235.404 72.5772 235.149 72.8565C234.898 73.1359 234.564 73.3703 234.147 73.5597C233.735 73.7491 233.217 73.8438 232.592 73.8438C231.754 73.8438 230.994 73.6473 230.312 73.2543C229.635 72.8565 229.095 72.2647 228.693 71.4787C228.295 70.688 228.096 69.6984 228.096 68.5099C228.096 67.312 228.295 66.3011 228.693 65.4773C229.095 64.6487 229.637 64.0213 230.319 63.5952C231.001 63.1643 231.761 62.9489 232.599 62.9489C233.238 62.9489 233.764 63.0578 234.176 63.2756C234.592 63.4886 234.924 63.7467 235.17 64.0497C235.416 64.348 235.603 64.6297 235.731 64.8949H235.873V63.0909H238.409V74.1776C238.409 75.1103 238.186 75.8821 237.741 76.4929C237.296 77.1037 236.688 77.5606 235.916 77.8636C235.144 78.1667 234.268 78.3182 233.288 78.3182ZM233.309 71.8267C233.854 71.8267 234.318 71.6941 234.701 71.429C235.085 71.1638 235.376 70.7827 235.575 70.2855C235.774 69.7884 235.873 69.1918 235.873 68.4957C235.873 67.8092 235.774 67.2079 235.575 66.6918C235.381 66.1757 235.092 65.7756 234.708 65.4915C234.33 65.2027 233.863 65.0582 233.309 65.0582C232.736 65.0582 232.258 65.2074 231.875 65.5057C231.491 65.804 231.202 66.2135 231.008 66.7344C230.814 67.2505 230.717 67.8376 230.717 68.4957C230.717 69.1634 230.814 69.7481 231.008 70.25C231.207 70.7472 231.498 71.1354 231.882 71.4148C232.27 71.6894 232.746 71.8267 233.309 71.8267ZM249.666 65.9744L247.322 66.2301C247.256 65.9934 247.14 65.7708 246.974 65.5625C246.813 65.3542 246.595 65.1861 246.321 65.0582C246.046 64.9304 245.71 64.8665 245.312 64.8665C244.777 64.8665 244.327 64.9825 243.963 65.2145C243.603 65.4465 243.425 65.7472 243.43 66.1165C243.425 66.4337 243.541 66.6918 243.778 66.8906C244.02 67.0895 244.417 67.2528 244.971 67.3807L246.832 67.7784C247.864 68.0009 248.631 68.3537 249.133 68.8366C249.64 69.3196 249.895 69.9517 249.9 70.733C249.895 71.4195 249.694 72.0256 249.297 72.5511C248.904 73.072 248.357 73.4792 247.656 73.7727C246.955 74.0663 246.15 74.2131 245.241 74.2131C243.906 74.2131 242.831 73.9337 242.017 73.375C241.202 72.8116 240.717 72.0279 240.561 71.0241L243.068 70.7827C243.181 71.2751 243.423 71.6468 243.792 71.8977C244.162 72.1487 244.642 72.2741 245.234 72.2741C245.845 72.2741 246.335 72.1487 246.704 71.8977C247.078 71.6468 247.265 71.3366 247.265 70.9673C247.265 70.6548 247.145 70.3968 246.903 70.1932C246.666 69.9896 246.297 69.8333 245.795 69.7244L243.934 69.3338C242.888 69.116 242.114 68.7491 241.612 68.233C241.11 67.7121 240.861 67.054 240.866 66.2585C240.861 65.5862 241.044 65.0038 241.413 64.5114C241.787 64.0142 242.306 63.6307 242.968 63.3608C243.636 63.0862 244.405 62.9489 245.277 62.9489C246.555 62.9489 247.561 63.2211 248.295 63.7656C249.034 64.3101 249.491 65.0464 249.666 65.9744ZM263.593 65.669V67.7855H257.045V65.669H263.593ZM271.23 74V72.0966L276.28 67.1463C276.763 66.6586 277.165 66.2254 277.487 65.8466C277.809 65.4678 278.051 65.1009 278.212 64.7457C278.373 64.3906 278.453 64.0118 278.453 63.6094C278.453 63.1501 278.349 62.7571 278.141 62.4304C277.932 62.099 277.646 61.8433 277.281 61.6634C276.917 61.4834 276.502 61.3935 276.038 61.3935C275.56 61.3935 275.141 61.4929 274.781 61.6918C274.421 61.8859 274.142 62.1629 273.943 62.5227C273.749 62.8826 273.652 63.3111 273.652 63.8082H271.145C271.145 62.8849 271.356 62.0824 271.777 61.4006C272.198 60.7187 272.778 60.1908 273.517 59.8168C274.26 59.4427 275.113 59.2557 276.074 59.2557C277.049 59.2557 277.906 59.438 278.645 59.8026C279.384 60.1671 279.956 60.6667 280.364 61.3011C280.776 61.9356 280.982 62.66 280.982 63.4744C280.982 64.0189 280.877 64.554 280.669 65.0795C280.461 65.6051 280.094 66.1875 279.568 66.8267C279.047 67.4659 278.316 68.2401 277.374 69.1491L274.866 71.6989V71.7983H281.202V74H271.23Z" fill="#333333"/>
<path d="M30.224 74.1784V56.7239H33.3859V64.1131H41.474V56.7239H44.6445V74.1784H41.474V66.7636H33.3859V74.1784H30.224ZM53.7425 74.4341C52.43 74.4341 51.2964 74.1614 50.3419 73.6159C49.393 73.0648 48.6629 72.2864 48.1516 71.2807C47.6402 70.2693 47.3845 69.079 47.3845 67.7097C47.3845 66.3631 47.6402 65.1812 48.1516 64.1642C48.6686 63.1415 49.3902 62.346 50.3163 61.7778C51.2425 61.204 52.3305 60.917 53.5805 60.917C54.3874 60.917 55.1487 61.0477 55.8646 61.3091C56.5862 61.5648 57.2226 61.9625 57.7737 62.5023C58.3305 63.042 58.768 63.7295 59.0862 64.5648C59.4044 65.3943 59.5635 66.383 59.5635 67.5307V68.4767H48.8334V66.3972H56.6061C56.6004 65.8062 56.4726 65.2807 56.2226 64.8205C55.9726 64.3545 55.6231 63.9881 55.1743 63.721C54.7311 63.454 54.2141 63.3205 53.6231 63.3205C52.9925 63.3205 52.4385 63.4739 51.9612 63.7807C51.4839 64.0818 51.1118 64.4795 50.8447 64.9739C50.5834 65.4625 50.4499 65.9994 50.4442 66.5847V68.4C50.4442 69.1614 50.5834 69.8148 50.8618 70.3602C51.1402 70.9 51.5294 71.3148 52.0294 71.6045C52.5294 71.8886 53.1146 72.0307 53.7851 72.0307C54.2339 72.0307 54.6402 71.9682 55.0038 71.8432C55.3675 71.7125 55.6828 71.5222 55.9499 71.2722C56.2169 71.0222 56.4186 70.7125 56.555 70.3432L59.4356 70.667C59.2538 71.4284 58.9072 72.0932 58.3959 72.6614C57.8902 73.2239 57.2425 73.6614 56.4527 73.9739C55.6629 74.2807 54.7595 74.4341 53.7425 74.4341ZM65.9406 74.4426C65.1111 74.4426 64.3639 74.2949 63.6991 73.9994C63.0401 73.6983 62.5173 73.2551 62.131 72.6699C61.7503 72.0847 61.5599 71.3631 61.5599 70.5051C61.5599 69.7665 61.6963 69.1557 61.969 68.6727C62.2418 68.1898 62.6139 67.8034 63.0855 67.5136C63.5571 67.2239 64.0883 67.0051 64.6793 66.8574C65.2758 66.704 65.8923 66.5932 66.5287 66.525C67.2957 66.4455 67.9179 66.3744 68.3952 66.3119C68.8724 66.2437 69.219 66.1415 69.4349 66.0051C69.6565 65.8631 69.7673 65.6443 69.7673 65.3489V65.2977C69.7673 64.6557 69.577 64.1585 69.1963 63.8062C68.8156 63.454 68.2673 63.2778 67.5514 63.2778C66.7957 63.2778 66.1963 63.4426 65.7531 63.7722C65.3156 64.1017 65.0202 64.4909 64.8668 64.9398L61.9861 64.5307C62.2133 63.7352 62.5883 63.0705 63.1111 62.5364C63.6338 61.9966 64.273 61.5932 65.0287 61.3261C65.7844 61.0534 66.6196 60.917 67.5344 60.917C68.1651 60.917 68.7929 60.9909 69.4179 61.1386C70.0429 61.2864 70.6139 61.5307 71.131 61.8716C71.648 62.2068 72.0628 62.6642 72.3753 63.2437C72.6935 63.8233 72.8526 64.5477 72.8526 65.417V74.1784H69.8866V72.3801H69.7844C69.5969 72.7437 69.3327 73.0847 68.9918 73.4028C68.6565 73.7153 68.2332 73.9682 67.7219 74.1614C67.2162 74.3489 66.6224 74.4426 65.9406 74.4426ZM66.7418 72.1756C67.3611 72.1756 67.898 72.0534 68.3526 71.8091C68.8071 71.5591 69.1565 71.2295 69.4008 70.8205C69.6508 70.4114 69.7758 69.9653 69.7758 69.4824V67.9398C69.6793 68.0193 69.5145 68.0932 69.2815 68.1614C69.0543 68.2295 68.7986 68.2892 68.5145 68.3403C68.2304 68.3915 67.9491 68.4369 67.6707 68.4767C67.3923 68.5165 67.1508 68.5506 66.9463 68.579C66.4861 68.6415 66.0741 68.7437 65.7105 68.8858C65.3469 69.0278 65.0599 69.2267 64.8497 69.4824C64.6395 69.7324 64.5344 70.0562 64.5344 70.454C64.5344 71.0222 64.7418 71.4511 65.1565 71.7409C65.5713 72.0307 66.0997 72.1756 66.7418 72.1756ZM80.8128 74.4085C79.7844 74.4085 78.8639 74.1443 78.0514 73.6159C77.2389 73.0875 76.5969 72.3205 76.1253 71.3148C75.6537 70.3091 75.4179 69.0875 75.4179 67.65C75.4179 66.1955 75.6565 64.9682 76.1338 63.9682C76.6168 62.9625 77.2673 62.204 78.0855 61.6926C78.9037 61.1756 79.8156 60.917 80.8213 60.917C81.5883 60.917 82.219 61.0477 82.7133 61.3091C83.2077 61.5648 83.5997 61.8744 83.8895 62.2381C84.1793 62.596 84.4037 62.9341 84.5628 63.2523H84.6906V56.7239H87.7844V74.1784H84.7503V72.1159H84.5628C84.4037 72.4341 84.1736 72.7722 83.8724 73.1301C83.5713 73.4824 83.1736 73.7835 82.6793 74.0335C82.1849 74.2835 81.5628 74.4085 80.8128 74.4085ZM81.6736 71.8773C82.327 71.8773 82.8838 71.7011 83.344 71.3489C83.8043 70.9909 84.1537 70.4937 84.3923 69.8574C84.631 69.221 84.7503 68.4795 84.7503 67.633C84.7503 66.7864 84.631 66.0506 84.3923 65.4256C84.1594 64.8006 83.8128 64.3148 83.3526 63.9682C82.898 63.6216 82.3383 63.4483 81.6736 63.4483C80.9861 63.4483 80.4122 63.6273 79.952 63.9852C79.4918 64.3432 79.1452 64.8375 78.9122 65.4682C78.6793 66.0989 78.5628 66.8205 78.5628 67.633C78.5628 68.4511 78.6793 69.1812 78.9122 69.8233C79.1508 70.4597 79.5003 70.9625 79.9605 71.3318C80.4264 71.6955 80.9974 71.8773 81.6736 71.8773ZM91.072 74.1784V61.0875H94.1572V74.1784H91.072ZM92.6231 59.2295C92.1345 59.2295 91.7141 59.0676 91.3618 58.7437C91.0095 58.4142 90.8334 58.0193 90.8334 57.5591C90.8334 57.0932 91.0095 56.6983 91.3618 56.3744C91.7141 56.0449 92.1345 55.8801 92.6231 55.8801C93.1175 55.8801 93.5379 56.0449 93.8845 56.3744C94.2368 56.6983 94.4129 57.0932 94.4129 57.5591C94.4129 58.0193 94.2368 58.4142 93.8845 58.7437C93.5379 59.0676 93.1175 59.2295 92.6231 59.2295ZM100.415 66.508V74.1784H97.3298V61.0875H100.279V63.3119H100.432C100.733 62.579 101.213 61.9966 101.872 61.5648C102.537 61.133 103.358 60.917 104.336 60.917C105.239 60.917 106.026 61.1102 106.696 61.4966C107.372 61.883 107.895 62.4426 108.264 63.1756C108.639 63.9085 108.824 64.7977 108.818 65.8432V74.1784H105.733V66.3205C105.733 65.4455 105.506 64.7608 105.051 64.2665C104.603 63.7722 103.98 63.525 103.185 63.525C102.645 63.525 102.165 63.6443 101.745 63.883C101.33 64.1159 101.003 64.454 100.764 64.8972C100.532 65.3403 100.415 65.8773 100.415 66.508ZM117.648 79.3602C116.54 79.3602 115.588 79.2097 114.793 78.9085C113.997 78.6131 113.358 78.2153 112.875 77.7153C112.392 77.2153 112.057 76.6614 111.87 76.0534L114.648 75.3801C114.773 75.6358 114.955 75.8886 115.193 76.1386C115.432 76.3943 115.753 76.6045 116.157 76.7693C116.566 76.9398 117.08 77.025 117.699 77.025C118.574 77.025 119.299 76.8119 119.872 76.3858C120.446 75.9653 120.733 75.2722 120.733 74.3062V71.8261H120.58C120.421 72.1443 120.188 72.471 119.881 72.8062C119.58 73.1415 119.179 73.4227 118.679 73.65C118.185 73.8773 117.563 73.9909 116.813 73.9909C115.807 73.9909 114.895 73.7551 114.077 73.2835C113.264 72.8062 112.617 72.096 112.134 71.1528C111.657 70.204 111.418 69.0165 111.418 67.5903C111.418 66.1528 111.657 64.9398 112.134 63.9511C112.617 62.9568 113.267 62.204 114.086 61.6926C114.904 61.1756 115.816 60.917 116.821 60.917C117.588 60.917 118.219 61.0477 118.713 61.3091C119.213 61.5648 119.611 61.8744 119.907 62.2381C120.202 62.596 120.426 62.9341 120.58 63.2523H120.75V61.0875H123.793V74.3915C123.793 75.5108 123.526 76.4369 122.992 77.1699C122.458 77.9028 121.728 78.4511 120.801 78.8148C119.875 79.1784 118.824 79.3602 117.648 79.3602ZM117.674 71.5705C118.327 71.5705 118.884 71.4114 119.344 71.0932C119.804 70.775 120.154 70.3176 120.392 69.721C120.631 69.1244 120.75 68.4085 120.75 67.5733C120.75 66.7494 120.631 66.0278 120.392 65.4085C120.159 64.7892 119.813 64.3091 119.353 63.9682C118.898 63.6216 118.338 63.4483 117.674 63.4483C116.986 63.4483 116.412 63.6273 115.952 63.9852C115.492 64.3432 115.145 64.8347 114.912 65.4597C114.679 66.079 114.563 66.7835 114.563 67.5733C114.563 68.3744 114.679 69.0761 114.912 69.6784C115.151 70.275 115.5 70.7409 115.961 71.0761C116.426 71.4057 116.997 71.5705 117.674 71.5705ZM137.301 64.5477L134.489 64.8545C134.409 64.5705 134.27 64.3034 134.071 64.0534C133.878 63.8034 133.617 63.6017 133.287 63.4483C132.958 63.2949 132.554 63.2182 132.077 63.2182C131.435 63.2182 130.895 63.3574 130.458 63.6358C130.026 63.9142 129.813 64.275 129.818 64.7182C129.813 65.0989 129.952 65.4085 130.236 65.6472C130.526 65.8858 131.003 66.0818 131.668 66.2352L133.901 66.7125C135.139 66.9795 136.06 67.4028 136.662 67.9824C137.27 68.5619 137.577 69.3205 137.583 70.258C137.577 71.0818 137.336 71.8091 136.858 72.4398C136.387 73.0648 135.73 73.5534 134.889 73.9057C134.049 74.258 133.083 74.4341 131.992 74.4341C130.389 74.4341 129.1 74.0989 128.122 73.4284C127.145 72.7523 126.563 71.8119 126.375 70.6074L129.384 70.3176C129.52 70.9085 129.81 71.3545 130.253 71.6557C130.696 71.9568 131.273 72.1074 131.983 72.1074C132.716 72.1074 133.304 71.9568 133.747 71.6557C134.196 71.3545 134.421 70.9824 134.421 70.5392C134.421 70.1642 134.276 69.8545 133.986 69.6102C133.702 69.3659 133.259 69.1784 132.657 69.0477L130.424 68.579C129.168 68.3176 128.239 67.8773 127.637 67.258C127.034 66.633 126.736 65.8432 126.742 64.8886C126.736 64.0818 126.955 63.383 127.398 62.792C127.847 62.1955 128.469 61.7352 129.264 61.4114C130.066 61.0818 130.989 60.917 132.034 60.917C133.568 60.917 134.776 61.2437 135.657 61.8972C136.543 62.5506 137.091 63.4341 137.301 64.5477Z" fill="#333333"/>
<path d="M29.8344 34.1367V16.6822H41.0162V19.3327H32.9963V24.0714H40.2492V26.7219H32.9963V34.1367H29.8344ZM48.5098 34.3924C47.2314 34.3924 46.1235 34.1112 45.186 33.5487C44.2485 32.9862 43.5212 32.1992 43.0042 31.1879C42.4928 30.1765 42.2371 28.9947 42.2371 27.6424C42.2371 26.2901 42.4928 25.1055 43.0042 24.0884C43.5212 23.0714 44.2485 22.2816 45.186 21.7191C46.1235 21.1566 47.2314 20.8754 48.5098 20.8754C49.7882 20.8754 50.8962 21.1566 51.8337 21.7191C52.7712 22.2816 53.4956 23.0714 54.007 24.0884C54.524 25.1055 54.7826 26.2901 54.7826 27.6424C54.7826 28.9947 54.524 30.1765 54.007 31.1879C53.4956 32.1992 52.7712 32.9862 51.8337 33.5487C50.8962 34.1112 49.7882 34.3924 48.5098 34.3924ZM48.5269 31.9208C49.2201 31.9208 49.7996 31.7305 50.2655 31.3498C50.7314 30.9634 51.078 30.4464 51.3053 29.7987C51.5382 29.1509 51.6547 28.4293 51.6547 27.6339C51.6547 26.8327 51.5382 26.1083 51.3053 25.4606C51.078 24.8072 50.7314 24.2873 50.2655 23.9009C49.7996 23.5146 49.2201 23.3214 48.5269 23.3214C47.8167 23.3214 47.2257 23.5146 46.7542 23.9009C46.2882 24.2873 45.9388 24.8072 45.7059 25.4606C45.4786 26.1083 45.365 26.8327 45.365 27.6339C45.365 28.4293 45.4786 29.1509 45.7059 29.7987C45.9388 30.4464 46.2882 30.9634 46.7542 31.3498C47.2257 31.7305 47.8167 31.9208 48.5269 31.9208ZM60.4864 26.4663V34.1367H57.4012V21.0458H60.35V23.2702H60.5034C60.8046 22.5373 61.2847 21.9549 61.9438 21.5231C62.6086 21.0913 63.4296 20.8754 64.4069 20.8754C65.3103 20.8754 66.0972 21.0685 66.7677 21.4549C67.4438 21.8413 67.9665 22.4009 68.3358 23.1339C68.7108 23.8668 68.8955 24.756 68.8898 25.8015V34.1367H65.8046V26.2788C65.8046 25.4038 65.5773 24.7191 65.1228 24.2248C64.6739 23.7305 64.0517 23.4833 63.2563 23.4833C62.7165 23.4833 62.2364 23.6026 61.8159 23.8413C61.4012 24.0742 61.0745 24.4123 60.8358 24.8555C60.6029 25.2987 60.4864 25.8356 60.4864 26.4663ZM78.5631 21.0458V23.4322H71.0375V21.0458H78.5631ZM72.8955 17.9094H75.9807V30.1992C75.9807 30.614 76.0432 30.9322 76.1682 31.1538C76.2989 31.3697 76.4694 31.5174 76.6796 31.5969C76.8898 31.6765 77.1228 31.7163 77.3784 31.7163C77.5716 31.7163 77.7478 31.7021 77.9069 31.6737C78.0716 31.6452 78.1966 31.6197 78.2819 31.5969L78.8017 34.0089C78.637 34.0657 78.4012 34.1282 78.0944 34.1964C77.7932 34.2646 77.4239 34.3043 76.9864 34.3157C76.2137 34.3384 75.5177 34.2219 74.8983 33.9663C74.279 33.7049 73.7875 33.3015 73.4239 32.756C73.0659 32.2106 72.8898 31.5288 72.8955 30.7106V17.9094ZM96.7186 21.4805C96.6391 20.7362 96.3039 20.1566 95.713 19.7418C95.1277 19.3271 94.3664 19.1197 93.4289 19.1197C92.7698 19.1197 92.2044 19.2191 91.7329 19.418C91.2613 19.6168 90.9005 19.8867 90.6505 20.2276C90.4005 20.5685 90.2726 20.9577 90.2669 21.3952C90.2669 21.7589 90.3493 22.0742 90.5141 22.3413C90.6846 22.6083 90.9147 22.8356 91.2044 23.0231C91.4942 23.2049 91.8152 23.3583 92.1675 23.4833C92.5198 23.6083 92.8749 23.7134 93.2329 23.7987L94.8692 24.2077C95.5283 24.3612 96.1618 24.5685 96.7698 24.8299C97.3834 25.0913 97.9317 25.4208 98.4147 25.8185C98.9033 26.2163 99.2897 26.6964 99.5738 27.2589C99.8579 27.8214 99.9999 28.4805 99.9999 29.2362C99.9999 30.2589 99.7385 31.1594 99.2158 31.9379C98.6931 32.7106 97.9374 33.3157 96.9488 33.7532C95.9658 34.185 94.7755 34.4009 93.3777 34.4009C92.0198 34.4009 90.8408 34.1907 89.8408 33.7702C88.8465 33.3498 88.0681 32.7362 87.5056 31.9293C86.9488 31.1225 86.6476 30.1396 86.6022 28.9805H89.713C89.7584 29.5884 89.9459 30.0941 90.2755 30.4975C90.605 30.9009 91.034 31.2021 91.5624 31.4009C92.0965 31.5998 92.6931 31.6992 93.3522 31.6992C94.0397 31.6992 94.6419 31.5969 95.159 31.3924C95.6817 31.1822 96.0908 30.8924 96.3863 30.5231C96.6817 30.1481 96.8323 29.7106 96.838 29.2106C96.8323 28.756 96.6988 28.381 96.4374 28.0856C96.176 27.7844 95.8096 27.5344 95.338 27.3356C94.8721 27.131 94.3266 26.9492 93.7016 26.7901L91.7158 26.2788C90.2783 25.9094 89.1419 25.3498 88.3067 24.5998C87.4772 23.8441 87.0624 22.8413 87.0624 21.5913C87.0624 20.5629 87.3408 19.6623 87.8976 18.8896C88.4601 18.1168 89.2243 17.5174 90.1902 17.0913C91.1561 16.6594 92.2499 16.4435 93.4715 16.4435C94.7101 16.4435 95.7954 16.6594 96.7272 17.0913C97.6647 17.5174 98.4005 18.1112 98.9346 18.8725C99.4686 19.6282 99.7442 20.4975 99.7613 21.4805H96.7186ZM102.682 34.1367V21.0458H105.768V34.1367H102.682ZM104.234 19.1879C103.745 19.1879 103.324 19.0259 102.972 18.7021C102.62 18.3725 102.444 17.9776 102.444 17.5174C102.444 17.0515 102.62 16.6566 102.972 16.3327C103.324 16.0032 103.745 15.8384 104.234 15.8384C104.728 15.8384 105.148 16.0032 105.495 16.3327C105.847 16.6566 106.023 17.0515 106.023 17.5174C106.023 17.9776 105.847 18.3725 105.495 18.7021C105.148 19.0259 104.728 19.1879 104.234 19.1879ZM108.77 34.1367V32.1765L115.52 23.7134V23.6026H108.991V21.0458H119.295V23.1509L112.869 31.4691V31.5799H119.517V34.1367H108.77ZM127.837 34.3924C126.525 34.3924 125.391 34.1197 124.437 33.5742C123.488 33.0231 122.758 32.2447 122.246 31.239C121.735 30.2276 121.479 29.0373 121.479 27.668C121.479 26.3214 121.735 25.1396 122.246 24.1225C122.763 23.0998 123.485 22.3043 124.411 21.7361C125.337 21.1623 126.425 20.8754 127.675 20.8754C128.482 20.8754 129.244 21.006 129.959 21.2674C130.681 21.5231 131.317 21.9208 131.869 22.4606C132.425 23.0004 132.863 23.6879 133.181 24.5231C133.499 25.3526 133.658 26.3413 133.658 27.489V28.435H122.928V26.3555H130.701C130.695 25.7646 130.567 25.239 130.317 24.7788C130.067 24.3129 129.718 23.9464 129.269 23.6793C128.826 23.4123 128.309 23.2788 127.718 23.2788C127.087 23.2788 126.533 23.4322 126.056 23.739C125.579 24.0401 125.207 24.4379 124.94 24.9322C124.678 25.4208 124.545 25.9577 124.539 26.543V28.3583C124.539 29.1197 124.678 29.7731 124.957 30.3185C125.235 30.8583 125.624 31.2731 126.124 31.5629C126.624 31.8469 127.209 31.989 127.88 31.989C128.329 31.989 128.735 31.9265 129.099 31.8015C129.462 31.6708 129.778 31.4805 130.045 31.2305C130.312 30.9805 130.513 30.6708 130.65 30.3015L133.53 30.6254C133.349 31.3867 133.002 32.0515 132.491 32.6197C131.985 33.1822 131.337 33.6197 130.547 33.9322C129.758 34.239 128.854 34.3924 127.837 34.3924ZM146.615 24.506L143.802 24.8129C143.723 24.5288 143.584 24.2617 143.385 24.0117C143.192 23.7617 142.93 23.56 142.601 23.4066C142.271 23.2532 141.868 23.1765 141.391 23.1765C140.748 23.1765 140.209 23.3157 139.771 23.5941C139.339 23.8725 139.126 24.2333 139.132 24.6765C139.126 25.0572 139.266 25.3668 139.55 25.6055C139.839 25.8441 140.317 26.0401 140.981 26.1935L143.214 26.6708C144.453 26.9379 145.373 27.3612 145.976 27.9407C146.584 28.5202 146.891 29.2788 146.896 30.2163C146.891 31.0401 146.649 31.7674 146.172 32.3981C145.7 33.0231 145.044 33.5117 144.203 33.864C143.362 34.2163 142.396 34.3924 141.305 34.3924C139.703 34.3924 138.413 34.0572 137.436 33.3867C136.459 32.7106 135.876 31.7702 135.689 30.5657L138.697 30.2759C138.834 30.8668 139.123 31.3129 139.567 31.614C140.01 31.9151 140.587 32.0657 141.297 32.0657C142.03 32.0657 142.618 31.9151 143.061 31.614C143.51 31.3129 143.734 30.9407 143.734 30.4975C143.734 30.1225 143.589 29.8129 143.3 29.5685C143.016 29.3242 142.572 29.1367 141.97 29.006L139.737 28.5373C138.481 28.2759 137.552 27.8356 136.95 27.2163C136.348 26.5913 136.05 25.8015 136.055 24.8469C136.05 24.0401 136.268 23.3413 136.712 22.7504C137.16 22.1538 137.783 21.6935 138.578 21.3697C139.379 21.0401 140.302 20.8754 141.348 20.8754C142.882 20.8754 144.089 21.2021 144.97 21.8555C145.856 22.5089 146.405 23.3924 146.615 24.506Z" fill="#333333"/>
</svg>
